<svg class="me-2" xmlns="http://www.w3.org/2000/svg" width="24" height="24" viewBox="0 0 25 25" fill="none"><g clip-path="url(#clip0_0_97)"><path d="M12.6543 16.3154C14.8548 16.3154 16.6387 14.5316 16.6387 12.3311C16.6387 10.1305 14.8548 8.34668 12.6543 8.34668C10.4538 8.34668 8.66992 10.1305 8.66992 12.3311C8.66992 14.5316 10.4538 16.3154 12.6543 16.3154Z" fill="white"></path><path d="M7.38812 11.1785C7.91743 8.7581 10.0774 6.94043 12.6543 6.94043H23.3822C22.8129 5.81041 22.0603 4.76646 21.1396 3.84574C18.8731 1.57929 15.8596 0.331055 12.6543 0.331055C9.44898 0.331055 6.43553 1.57929 4.16898 3.84574C3.95101 4.06371 3.7427 4.28871 3.54381 4.51999L7.38812 11.1785Z" fill="white"></path><path d="M14.2893 17.4679C13.7734 17.6325 13.2241 17.7217 12.6543 17.7217C10.6519 17.7217 8.90111 16.6241 7.97158 14.9991C7.96492 14.9888 7.95831 14.9786 7.95212 14.9679L2.62356 5.73853C1.34247 7.67915 0.654297 9.95212 0.654297 12.331C0.654297 15.5363 1.90253 18.5498 4.16898 20.8163C5.90538 22.5527 8.08037 23.6905 10.444 24.1282L14.2893 17.4679Z" fill="white"></path><path d="M16.2814 8.34668C17.3643 9.3333 18.0449 10.7542 18.0449 12.3311C18.0449 13.3228 17.7754 14.2527 17.3062 15.0519C17.3014 15.0611 17.2973 15.0704 17.2921 15.0794L11.9624 24.3108C12.1919 24.3237 12.4225 24.3311 12.6543 24.3311C15.8596 24.3311 18.8731 23.0828 21.1396 20.8164C23.4061 18.5498 24.6543 15.5364 24.6543 12.3311C24.6543 10.9526 24.4228 9.60996 23.9795 8.34668H16.2814Z" fill="white"></path></g><defs><clipPath id="clip0_0_97"><rect width="24" height="24" fill="white" transform="translate(0.654297 0.331055)"></rect></clipPath></defs></svg>