<svg xmlns="http://www.w3.org/2000/svg" xmlns:xlink="http://www.w3.org/1999/xlink" version="1.1" id="Layer_1" x="0px" y="0px" viewBox="0 0 25 25" style="enable-background:new 0 0 25 25;" xml:space="preserve">
<style type="text/css">
	.st0{fill:#FFFFFF;}
</style>
<path class="st0" d="M9.9,24.8c0-0.1,0-0.2,0-0.3c0-3.5,0-7.1,0-10.6c0-0.1,0-0.2,0-0.3c-1.3,0-2.5,0-3.8,0c0-1.5,0-2.9,0-4.4  c1.2,0,2.5,0,3.8,0c0-0.1,0-0.2,0-0.3c0-1.1,0-2.3,0-3.4c0.1-1.4,0.5-2.6,1.4-3.7C12.1,1,13,0.5,14.1,0.3c0.8-0.2,1.7-0.2,2.6-0.1  c0.7,0,1.4,0.1,2.1,0.1c0.1,0,0.1,0,0.2,0c0,1.3,0,2.6,0,3.9c-0.1,0-0.2,0-0.3,0c-0.9,0-1.7,0-2.6,0c-1,0.1-1.6,0.6-1.6,1.6  c0,1.1,0,2.1,0,3.2c0,0,0,0,0,0.1c1.4,0,2.8,0,4.3,0c-0.2,1.5-0.4,2.9-0.6,4.4c-1.3,0-2.5,0-3.7,0c0,0.1,0,0.2,0,0.2  c0,3.6,0,7.2,0,10.9c0,0.1,0,0.1,0,0.2C12.9,24.8,11.4,24.8,9.9,24.8z"/>
</svg>