<svg xmlns="http://www.w3.org/2000/svg" width="14" height="13" viewBox="0 0 14 13" fill="none">
<path fill-rule="evenodd" clip-rule="evenodd" d="M7.00061 0.0585938C5.26245 0.0585938 5.04432 0.0661938 4.36165 0.0972608C3.68031 0.128461 3.21523 0.236329 2.8083 0.394597C2.38736 0.558066 2.03029 0.776735 1.67455 1.1326C1.31855 1.48834 1.09988 1.84541 0.935876 2.26622C0.777208 2.67329 0.669207 3.13849 0.63854 3.81957C0.608006 4.50224 0.600006 4.72051 0.600006 6.45866C0.600006 8.19681 0.60774 8.41428 0.638673 9.09695C0.670007 9.77829 0.777875 10.2434 0.93601 10.6503C1.09961 11.0712 1.31828 11.4283 1.67415 11.784C2.02975 12.1401 2.38682 12.3593 2.8075 12.5227C3.2147 12.681 3.6799 12.7889 4.36111 12.8201C5.04379 12.8511 5.26179 12.8587 6.99981 12.8587C8.73809 12.8587 8.95556 12.8511 9.63823 12.8201C10.3196 12.7889 10.7852 12.681 11.1924 12.5227C11.6132 12.3593 11.9697 12.1401 12.3253 11.784C12.6813 11.4283 12.9 11.0712 13.064 10.6504C13.2213 10.2434 13.3293 9.77816 13.3613 9.09709C13.392 8.41441 13.4 8.19681 13.4 6.45866C13.4 4.72051 13.392 4.50237 13.3613 3.8197C13.3293 3.13836 13.2213 2.67329 13.064 2.26635C12.9 1.84541 12.6813 1.48834 12.3253 1.1326C11.9693 0.776601 11.6133 0.557932 11.192 0.394597C10.784 0.236329 10.3186 0.128461 9.6373 0.0972608C8.95463 0.0661938 8.73729 0.0585938 6.99861 0.0585938H7.00061ZM6.42644 1.21192C6.59684 1.21165 6.78698 1.21192 7.00058 1.21192C8.7094 1.21192 8.91193 1.21805 9.58674 1.24872C10.2107 1.27726 10.5494 1.38152 10.775 1.46912C11.0737 1.58512 11.2866 1.72379 11.5105 1.9478C11.7345 2.1718 11.8732 2.38513 11.9894 2.6838C12.077 2.90914 12.1814 3.24781 12.2098 3.87182C12.2405 4.54649 12.2472 4.74916 12.2472 6.45718C12.2472 8.16519 12.2405 8.36786 12.2098 9.04254C12.1813 9.66654 12.077 10.0052 11.9894 10.2305C11.8734 10.5292 11.7345 10.7419 11.5105 10.9658C11.2865 11.1898 11.0738 11.3284 10.775 11.4444C10.5497 11.5324 10.2107 11.6364 9.58674 11.665C8.91207 11.6956 8.7094 11.7023 7.00058 11.7023C5.29163 11.7023 5.08909 11.6956 4.41442 11.665C3.79041 11.6362 3.45174 11.5319 3.22601 11.4443C2.92734 11.3283 2.714 11.1896 2.49 10.9656C2.266 10.7416 2.12733 10.5288 2.01106 10.23C1.92346 10.0047 1.81906 9.66601 1.79066 9.042C1.75999 8.36733 1.75386 8.16466 1.75386 6.45558C1.75386 4.74649 1.75999 4.54489 1.79066 3.87022C1.81919 3.24621 1.92346 2.90754 2.01106 2.68194C2.12706 2.38327 2.266 2.16993 2.49 1.94593C2.714 1.72193 2.92734 1.58326 3.22601 1.46699C3.45161 1.37899 3.79041 1.27499 4.41442 1.24632C5.00482 1.21965 5.23363 1.21165 6.42644 1.21032V1.21192ZM10.4169 2.2746C9.99288 2.2746 9.64888 2.61821 9.64888 3.04234C9.64888 3.46635 9.99288 3.81035 10.4169 3.81035C10.8409 3.81035 11.1849 3.46635 11.1849 3.04234C11.1849 2.61834 10.8409 2.2746 10.4169 2.2746ZM7.00062 3.17194C5.18553 3.17194 3.71392 4.64356 3.71392 6.45864C3.71392 8.27373 5.18553 9.74468 7.00062 9.74468C8.8157 9.74468 10.2868 8.27373 10.2868 6.45864C10.2868 4.64356 8.8157 3.17194 7.00062 3.17194ZM7.00059 4.32529C8.17874 4.32529 9.13395 5.28036 9.13395 6.45864C9.13395 7.63679 8.17874 8.592 7.00059 8.592C5.82231 8.592 4.86724 7.63679 4.86724 6.45864C4.86724 5.28036 5.82231 4.32529 7.00059 4.32529Z" fill="white"/>
</svg>