<svg xmlns="http://www.w3.org/2000/svg" xmlns:xlink="http://www.w3.org/1999/xlink" version="1.1" id="Layer_1" x="0px" y="0px" viewBox="0 0 25 25" style="enable-background:new 0 0 25 25;" xml:space="preserve">
<style type="text/css">
	.st0{fill:#FFFFFF;}
</style>
<g>
	<path class="st0" d="M13.9,23.9c-1.6,0-3.1,0-4.7,0c0-5.1,0-10.2,0-15.3c1.5,0,3,0,4.5,0c0,0.7,0,1.3,0,2.1c0.1,0,0.1,0,0.1-0.1   c1-1.6,2.5-2.3,4.3-2.4c1.1,0,2.1,0.1,3,0.6c1.3,0.6,2,1.6,2.3,2.9c0.3,1,0.4,2.1,0.4,3.1c0,2.9,0,5.9,0,8.8c0,0,0,0.1,0,0.2   c-1.6,0-3.1,0-4.7,0c0-0.1,0-0.2,0-0.3c0-2.5,0-5,0-7.5c0-0.6,0-1.1-0.2-1.7c-0.3-1.6-1.3-2.1-2.8-1.9c-1.3,0.2-2.1,0.9-2.3,2.4   c-0.1,0.5-0.1,1.1-0.1,1.6c0,2.4,0,4.8,0,7.2C13.9,23.7,13.9,23.8,13.9,23.9z"/>
	<path class="st0" d="M1.4,8.7c1.6,0,3.1,0,4.7,0c0,5.1,0,10.2,0,15.2c-1.6,0-3.1,0-4.7,0C1.4,18.9,1.4,13.8,1.4,8.7z"/>
	<path class="st0" d="M6.5,3.8c0,1.5-1.2,2.8-2.7,2.8S1,5.3,1,3.8s1.2-2.7,2.7-2.7C5.3,1,6.5,2.3,6.5,3.8z"/>
</g>
</svg>