<svg class="me-1" xmlns="http://www.w3.org/2000/svg" width="25" height="24" viewBox="0 0 25 24" fill="none"><g id="Iconly/Bold/Calendar"><g id="Calendar"><path id="Calendar_2" fill-rule="evenodd" clip-rule="evenodd" d="M16.5096 2.76862L16.5106 3.51824C19.2652 3.73413 21.0849 5.61119 21.0878 8.48975L21.0987 16.9155C21.1026 20.054 19.1309 21.985 15.9705 21.99L8.25058 22C5.10989 22.004 3.11351 20.027 3.10956 16.8795L3.0987 8.55272C3.09475 5.65517 4.85022 3.78311 7.60487 3.53024L7.60388 2.78061C7.60289 2.34083 7.92871 2.01 8.36313 2.01C8.79756 2.009 9.12337 2.33883 9.12436 2.77861L9.12535 3.47826L14.9901 3.47027L14.9891 2.77062C14.9881 2.33084 15.3139 2.001 15.7483 2C16.1729 1.999 16.5086 2.32884 16.5096 2.76862ZM4.62017 8.86157L19.5683 8.84158V8.49175C19.5259 6.34283 18.4477 5.21539 16.5125 5.04748L16.5135 5.81709C16.5135 6.24688 16.1788 6.5877 15.7543 6.5877C15.3198 6.5887 14.993 6.24887 14.993 5.81909L14.9921 5.0095L9.12732 5.01749L9.12831 5.82609C9.12831 6.25687 8.80348 6.5967 8.36906 6.5967C7.93463 6.5977 7.60783 6.25887 7.60783 5.82809L7.60684 5.05847C5.68155 5.25137 4.61622 6.38281 4.61919 8.55072L4.62017 8.86157ZM15.3386 13.4043V13.4153C15.3485 13.8751 15.7237 14.2239 16.1788 14.2139C16.6231 14.2029 16.9776 13.8221 16.9677 13.3623C16.947 12.9225 16.5905 12.5637 16.1472 12.5647C15.6931 12.5747 15.3376 12.9445 15.3386 13.4043ZM16.1541 17.892C15.7 17.882 15.3337 17.5032 15.3327 17.0435C15.3228 16.5837 15.6871 16.2029 16.1413 16.1919H16.1512C16.6152 16.1919 16.9914 16.5707 16.9914 17.0405C16.9924 17.5102 16.6172 17.891 16.1541 17.892ZM11.2708 13.4203C11.2906 13.8801 11.6667 14.2389 12.1209 14.2189C12.5652 14.1979 12.9197 13.8181 12.8999 13.3583C12.889 12.9085 12.5237 12.5587 12.0794 12.5597C11.6253 12.5797 11.2698 12.9605 11.2708 13.4203ZM12.1249 17.8471C11.6707 17.8671 11.2955 17.5082 11.2748 17.0485C11.2748 16.5887 11.6292 16.2089 12.0834 16.1879C12.5277 16.1869 12.894 16.5367 12.9039 16.9855C12.9246 17.4463 12.5691 17.8261 12.1249 17.8471ZM7.20302 13.4553C7.22277 13.915 7.59894 14.2749 8.05311 14.2539C8.49741 14.2339 8.85186 13.8531 8.83113 13.3933C8.82125 12.9435 8.45594 12.5937 8.01066 12.5947C7.55649 12.6147 7.20204 12.9955 7.20302 13.4553ZM8.05706 17.8521C7.60289 17.8731 7.22771 17.5132 7.20697 17.0535C7.20598 16.5937 7.56142 16.2129 8.01559 16.1929C8.45989 16.1919 8.82619 16.5417 8.83606 16.9915C8.8568 17.4513 8.50235 17.8321 8.05706 17.8521Z" fill="#5946c5"></path></g></g></svg>