<svg xmlns="http://www.w3.org/2000/svg" width="12" height="11" viewBox="0 0 12 11" fill="none">
<path fill-rule="evenodd" clip-rule="evenodd" d="M5.6406 3.2122L5.66578 3.62742L5.2461 3.57658C3.71843 3.38168 2.38383 2.7207 1.25067 1.61061L0.696681 1.0598L0.553988 1.46655C0.251813 2.37327 0.444869 3.33083 1.0744 3.97486C1.41015 4.33077 1.33461 4.38161 0.755438 4.16976C0.553988 4.10197 0.377719 4.05113 0.360931 4.07655C0.302175 4.13587 0.503625 4.907 0.663106 5.21207C0.881344 5.63577 1.32621 6.05099 1.81305 6.29674L2.22434 6.49164L1.73751 6.50012C1.26746 6.50012 1.25067 6.50859 1.30103 6.68655C1.46891 7.23736 2.13201 7.82207 2.87066 8.07629L3.39108 8.25424L2.93781 8.52541C2.26631 8.91521 1.4773 9.13554 0.688288 9.15249C0.310569 9.16096 0 9.19486 0 9.22028C0 9.30502 1.02404 9.77956 1.61999 9.96599C3.40786 10.5168 5.53148 10.2795 7.1263 9.33892C8.25945 8.66947 9.39261 7.33905 9.92142 6.05099C10.2068 5.3646 10.4922 4.11044 10.4922 3.50879C10.4922 3.11898 10.5174 3.06814 10.9874 2.60207C11.2644 2.3309 11.5246 2.03431 11.575 1.94957C11.6589 1.78856 11.6505 1.78856 11.2224 1.93262C10.509 2.18684 10.4083 2.15294 10.7608 1.77161C11.021 1.50045 11.3316 1.00895 11.3316 0.864894C11.3316 0.839471 11.2057 0.881842 11.063 0.958108C10.9119 1.04285 10.5761 1.16996 10.3243 1.24622L9.87105 1.39028L9.45976 1.11064C9.23313 0.958108 8.91417 0.788627 8.74629 0.737783C8.31821 0.619147 7.6635 0.636095 7.27738 0.771679C6.22816 1.15301 5.56506 2.136 5.6406 3.2122Z" fill="white"/>
</svg>