<svg xmlns="http://www.w3.org/2000/svg" width="34" height="35" viewBox="0 0 34 35" fill="none">
<path d="M33.1832 18.2113C33.1832 20.3648 32.759 22.4972 31.9349 24.4868C31.1108 26.4763 29.9029 28.2841 28.3801 29.8068C26.8574 31.3296 25.0496 32.5375 23.0601 33.3616C21.0705 34.1857 18.9381 34.6099 16.7846 34.6099C14.6311 34.6099 12.4987 34.1857 10.5091 33.3616C8.51958 32.5375 6.71182 31.3296 5.18907 29.8068C3.66633 28.2841 2.45842 26.4763 1.63431 24.4868C0.810208 22.4972 0.386047 20.3648 0.386047 18.2113L16.7846 18.2113H33.1832Z" fill="white"/>
<path d="M0.386047 18.2113C0.386048 16.0578 0.810209 13.9254 1.63431 11.9358C2.45842 9.94628 3.66633 8.13852 5.18908 6.61577C6.71182 5.09302 8.51959 3.88511 10.5092 3.06101C12.4987 2.2369 14.6311 1.81274 16.7846 1.81274C18.9381 1.81274 21.0705 2.23691 23.0601 3.06101C25.0496 3.88512 26.8574 5.09303 28.3801 6.61577C29.9029 8.13852 31.1108 9.94628 31.9349 11.9358C32.759 13.9254 33.1832 16.0578 33.1832 18.2113L16.7846 18.2113L0.386047 18.2113Z" fill="#7A63FF"/>
<mask id="mask0_0_57" style="mask-type:alpha" maskUnits="userSpaceOnUse" x="0" y="1" width="34" height="34">
<circle cx="16.7846" cy="18.2113" r="16.3986" fill="white"/>
</mask>
<g mask="url(#mask0_0_57)">
<rect x="-1.1795" y="9.68848" width="35.9283" height="9.94637" fill="#74E0EF"/>
</g>
<circle cx="16.7846" cy="18.2114" r="8.92059" fill="black"/>
<circle cx="16.7846" cy="18.2114" r="3.94704" fill="#FB3B3B"/>
<ellipse cx="9.3988" cy="3.77557" rx="3.88085" ry="3.52874" fill="#5946C5"/>
<ellipse rx="3.88085" ry="3.52874" transform="matrix(-1 0 0 1 23.6616 3.77557)" fill="#5946C5"/>
<circle cx="8.79376" cy="3.77557" r="3.52874" fill="white"/>
<circle cx="8.79369" cy="3.77538" r="1.33325" fill="#0D0606"/>
<circle cx="24.2604" cy="3.77557" r="3.52874" fill="white"/>
<circle cx="24.2604" cy="3.77563" r="1.33325" fill="#0D0606"/>
</svg>