<svg xmlns="http://www.w3.org/2000/svg" width="14" height="10" viewBox="0 0 14 10" fill="none">
<path fill-rule="evenodd" clip-rule="evenodd" d="M12.0008 0.333258C12.5515 0.484391 12.9853 0.9297 13.1325 1.4952C13.4 2.52011 13.4 4.65859 13.4 4.65859C13.4 4.65859 13.4 6.797 13.1325 7.82198C12.9853 8.38749 12.5515 8.8328 12.0008 8.984C11.0027 9.25859 6.99998 9.25859 6.99998 9.25859C6.99998 9.25859 2.99728 9.25859 1.9991 8.984C1.44834 8.8328 1.01459 8.38749 0.867394 7.82198C0.599976 6.797 0.599976 4.65859 0.599976 4.65859C0.599976 4.65859 0.599976 2.52011 0.867394 1.4952C1.01459 0.9297 1.44834 0.484391 1.9991 0.333258C2.99728 0.0585938 6.99998 0.0585938 6.99998 0.0585938C6.99998 0.0585938 11.0027 0.0585938 12.0008 0.333258ZM5.79999 2.85855V6.85855L8.99999 4.85863L5.79999 2.85855Z" fill="white"/>
</svg>